<svg xmlns="http://www.w3.org/2000/svg" xmlnsXlink="http://www.w3.org/1999/xlink" version="1.1" width="256" height="256" viewBox="0 0 256 256" xmlSpace="preserve">

<defs>
</defs>
<g style="stroke: none; stroke-width: 0; stroke-dasharray: none; stroke-linecap: butt; stroke-linejoin: miter; stroke-miterlimit: 10; fill: none; fill-rule: nonzero; opacity: 1;" transform="translate(1.4065934065934016 1.4065934065934016) scale(2.81 2.81)" >
	<path d="M 56.122 59.147 H 7.072 C 3.173 59.147 0 55.975 0 52.075 V 25.059 c 0 -3.9 3.173 -7.072 7.072 -7.072 h 59.785 c 3.899 0 7.072 3.172 7.072 7.072 v 17.9 c 0 0.552 -0.447 1 -1 1 s -1 -0.448 -1 -1 v -17.9 c 0 -2.797 -2.275 -5.072 -5.072 -5.072 H 7.072 C 4.275 19.987 2 22.262 2 25.059 v 27.016 c 0 2.798 2.275 5.073 5.072 5.073 h 49.05 c 0.553 0 1 0.447 1 1 S 56.675 59.147 56.122 59.147 z" style="stroke: none; stroke-width: 1; stroke-dasharray: none; stroke-linecap: butt; stroke-linejoin: miter; stroke-miterlimit: 10; fill: rgb(0,0,0); fill-rule: nonzero; opacity: 1;" transform=" matrix(1 0 0 1 0 0) " stroke-linecap="round" />
	<path d="M 86.281 51.46 l -4.797 -4.623 c -0.703 -0.679 -1.67 -1.064 -2.604 -1.039 c -0.885 0.017 -1.699 0.366 -2.293 0.982 c -0.367 0.381 -0.613 0.842 -0.756 1.342 c -0.518 -0.293 -1.092 -0.47 -1.689 -0.484 c -0.935 -0.024 -1.811 0.325 -2.442 0.981 c -0.542 0.562 -0.836 1.293 -0.877 2.082 c -0.114 -0.014 -0.226 -0.038 -0.341 -0.041 c -0.937 -0.026 -1.809 0.327 -2.441 0.981 c -0.331 0.343 -0.57 0.75 -0.72 1.194 L 64.15 49.78 c -0.672 -0.648 -1.544 -1.018 -2.455 -1.039 c -0.968 -0.032 -1.81 0.326 -2.442 0.981 c -0.632 0.655 -0.948 1.535 -0.892 2.477 c 0.056 0.909 0.456 1.766 1.128 2.415 l 10.579 10.197 l -2.081 0.32 c -0.904 0.139 -1.68 0.628 -2.183 1.376 c -0.512 0.76 -0.681 1.724 -0.463 2.644 c 0.393 1.665 1.94 2.861 3.588 2.861 c 0.17 0 0.342 -0.013 0.513 -0.039 l 11.915 -1.834 c 2.263 -0.34 4.274 -1.365 5.818 -2.966 C 91.267 62.927 90.866 55.878 86.281 51.46 z M 85.735 65.786 c -1.235 1.281 -2.852 2.102 -4.679 2.377 l -11.919 1.835 c -0.798 0.121 -1.652 -0.473 -1.849 -1.306 c -0.092 -0.386 -0.03 -0.765 0.174 -1.066 c 0.188 -0.28 0.483 -0.464 0.83 -0.518 l 4.077 -0.627 c 0.375 -0.058 0.686 -0.323 0.801 -0.686 s 0.015 -0.759 -0.259 -1.022 L 60.878 53.175 c -0.311 -0.3 -0.495 -0.689 -0.52 -1.098 c -0.022 -0.376 0.097 -0.72 0.335 -0.968 c 0.239 -0.247 0.547 -0.371 0.955 -0.37 c 0.408 0.01 0.805 0.181 1.115 0.479 l 5.515 5.315 l 3.226 3.11 c 0.194 0.187 0.444 0.28 0.694 0.28 c 0.262 0 0.523 -0.103 0.72 -0.306 c 0.384 -0.397 0.372 -1.031 -0.025 -1.414 l -3.224 -3.107 c -0.001 -0.001 -0.001 -0.002 -0.002 -0.003 l -0.006 -0.006 c -0.307 -0.299 -0.49 -0.686 -0.514 -1.092 c -0.022 -0.376 0.096 -0.72 0.335 -0.968 c 0.239 -0.247 0.548 -0.405 0.955 -0.369 c 0.408 0.01 0.805 0.18 1.114 0.478 l 3.226 3.109 c 0.098 0.095 0.211 0.165 0.331 0.211 c 0.05 0.02 0.103 0.018 0.155 0.029 c 0.07 0.015 0.138 0.04 0.208 0.04 c 0.003 0 0.005 -0.002 0.008 -0.002 c 0.098 -0.001 0.193 -0.028 0.287 -0.057 c 0.031 -0.009 0.063 -0.007 0.093 -0.02 c 0.122 -0.051 0.235 -0.126 0.332 -0.227 c 0.384 -0.398 0.372 -1.031 -0.025 -1.414 l -2.842 -2.739 c -0.309 -0.299 -0.493 -0.688 -0.518 -1.096 c -0.022 -0.376 0.096 -0.72 0.336 -0.968 c 0.238 -0.247 0.609 -0.368 0.953 -0.37 c 0.409 0.01 0.806 0.181 1.116 0.479 l 2.785 2.684 c 0.398 0.385 1.03 0.372 1.414 -0.025 c 0.384 -0.398 0.372 -1.031 -0.025 -1.414 l -1.173 -1.13 c -0.31 -0.3 -0.494 -0.689 -0.518 -1.096 c -0.022 -0.376 0.096 -0.72 0.336 -0.968 c 0.224 -0.232 0.539 -0.363 0.89 -0.37 c 0.422 0.006 0.853 0.167 1.179 0.479 l 4.797 4.623 C 88.684 56.553 89.061 62.334 85.735 65.786 z" style="stroke: none; stroke-width: 1; stroke-dasharray: none; stroke-linecap: butt; stroke-linejoin: miter; stroke-miterlimit: 10; fill: rgb(0,0,0); fill-rule: nonzero; opacity: 1;" transform=" matrix(1 0 0 1 0 0) " stroke-linecap="round" />
	<path d="M 27.222 35.406 V 33.55 c 0 -2.294 -1.867 -4.16 -4.16 -4.16 h -6.406 c -0.552 0 -1 0.448 -1 1 v 8.178 v 8.178 c 0 0.553 0.448 1 1 1 h 6.406 c 2.294 0 4.16 -1.867 4.16 -4.16 v -1.857 c 0 -1.271 -0.585 -2.397 -1.487 -3.161 C 26.637 37.803 27.222 36.677 27.222 35.406 z M 25.222 41.728 v 1.857 c 0 1.191 -0.969 2.16 -2.16 2.16 h -5.406 v -6.178 h 5.406 C 24.253 39.567 25.222 40.536 25.222 41.728 z M 17.656 37.567 v -6.178 h 5.406 c 1.191 0 2.16 0.969 2.16 2.16 v 1.857 c 0 1.191 -0.969 2.16 -2.16 2.16 H 17.656 z" style="stroke: none; stroke-width: 1; stroke-dasharray: none; stroke-linecap: butt; stroke-linejoin: miter; stroke-miterlimit: 10; fill: rgb(0,0,0); fill-rule: nonzero; opacity: 1;" transform=" matrix(1 0 0 1 0 0) " stroke-linecap="round" />
	<path d="M 37.37 47.745 c -3.189 0 -5.783 -2.399 -5.783 -5.347 V 30.389 c 0 -0.552 0.448 -1 1 -1 c 0.552 0 1 0.448 1 1 v 12.008 c 0 1.846 1.697 3.347 3.783 3.347 s 3.783 -1.502 3.783 -3.347 V 30.389 c 0 -0.552 0.448 -1 1 -1 c 0.552 0 1 0.448 1 1 v 12.008 C 43.154 45.346 40.559 47.745 37.37 47.745 z" style="stroke: none; stroke-width: 1; stroke-dasharray: none; stroke-linecap: butt; stroke-linejoin: miter; stroke-miterlimit: 10; fill: rgb(0,0,0); fill-rule: nonzero; opacity: 1;" transform=" matrix(1 0 0 1 0 0) " stroke-linecap="round" />
	<path d="M 57.803 29.541 c -0.468 -0.294 -1.084 -0.149 -1.378 0.318 l -3.935 6.302 l -3.935 -6.302 c -0.294 -0.468 -0.911 -0.612 -1.378 -0.318 c -0.469 0.292 -0.611 0.909 -0.319 1.378 l 4.632 7.418 v 8.408 c 0 0.553 0.447 1 1 1 s 1 -0.447 1 -1 v -8.407 l 4.632 -7.419 C 58.414 30.45 58.271 29.834 57.803 29.541 z" style="stroke: none; stroke-width: 1; stroke-dasharray: none; stroke-linecap: butt; stroke-linejoin: miter; stroke-miterlimit: 10; fill: rgb(0,0,0); fill-rule: nonzero; opacity: 1;" transform=" matrix(1 0 0 1 0 0) " stroke-linecap="round" />
</g>
</svg>